# xmcd
#
# Track frame offsets: 
#        150
#        20351
#        39823
#        68333
#        86630
#        107620
#        142917
#        158394
#        173064
#        197334
#
# Disc length: 2856 seconds
#
# Revision: 0
# Processed by: cddbd v1.5.2PL0 Copyright (c) Steve Scherf et al.
# Submitted via: ExactAudioCopy v1.3
#
DISCID=630b260a
DTITLE=Jimmy Dawkins - Chicago On My Mind
DYEAR=1991
DGENRE=Chicago Blues
TTITLE0=The Way She Walks
TTITLE1=Lick For Licks
TTITLE2=Don't Bring Me Your Trouble, Baby
TTITLE3=I Wonder Why Do You Things You Do To Me
TTITLE4=Let Me Have My Way
TTITLE5=Chicago On My Mind
TTITLE6=I've Been Walking All Night Long
TTITLE7=Blues In The Ghetto
TTITLE8=Out Of Business
TTITLE9=Low Down Dirty Dog
EXTD=
EXTT0=
EXTT1=
EXTT2=
EXTT3=
EXTT4=
EXTT5=
EXTT6=
EXTT7=
EXTT8=
EXTT9=
PLAYORDER=
